<?xml version="1.0" encoding="UTF-8"?>
<svg width="76px" height="76px" viewBox="0 0 76 76" version="1.1" xmlns="http://www.w3.org/2000/svg" xmlns:xlink="http://www.w3.org/1999/xlink">
    <title>Fill 4</title>
    <g id="Page-1" stroke="none" stroke-width="1" fill="none" fill-rule="evenodd">
        <path d="M34.5520677,69.0596001 L34.5520677,40.8896001 L6.36106765,40.8896001 C6.89606765,53.5816001 18.3820677,67.7416001 34.5520677,69.0596001 L34.5520677,69.0596001 Z M40.6580677,69.0386001 C55.1010677,68.0176001 67.7900677,55.7376001 69.0210677,40.9256001 L40.6580677,40.9256001 L40.6580677,69.0386001 Z M34.5250677,34.7816001 L34.5250677,6.21160014 C17.4130677,7.67860014 6.49006765,22.8996001 6.34606765,34.7816001 L34.5250677,34.7816001 Z M69.1090677,34.7736001 C68.5390677,27.2676001 64.8190677,18.8966001 57.4680677,13.0046001 C52.5770677,9.08360014 47.0230677,6.75160014 40.6950677,6.18960014 L40.6950677,34.7736001 L69.1090677,34.7736001 Z M75.2471751,37.6506001 C75.2500677,58.3866001 58.4220677,75.2936001 37.7740677,75.301603 C16.9690677,75.3096001 0.0280676546,58.3886001 3.37863991e-05,37.8026001 C-0.0279323454,16.6526001 17.3090677,-0.510399861 38.6410677,0.0116001386 C58.5860677,0.499600139 75.2960677,16.8896001 75.2471751,37.6506001 L75.2471751,37.6506001 Z" id="Fill-4" fill="#000000"></path>
    </g>
</svg>