<?xml version="1.0" encoding="UTF-8"?>
<svg width="56px" height="76px" viewBox="0 0 56 76" version="1.1" xmlns="http://www.w3.org/2000/svg" xmlns:xlink="http://www.w3.org/1999/xlink">
    <title>Fill 16</title>
    <g id="Page-1" stroke="none" stroke-width="1" fill="none" fill-rule="evenodd">
        <path d="M35.7752667,69.1142239 C24.9532667,61.3152239 19.0092667,50.9472239 19.0252667,37.6632239 C19.0402667,24.3672239 24.9742667,13.9512239 35.8462667,6.17622385 C21.0962667,6.63522385 6.51626672,19.0732239 5.99726672,36.6482239 C5.42926672,55.8752239 21.2582667,68.8862239 35.7752667,69.1142239 M55.5202667,71.9032239 C51.2852667,72.9102239 47.0932667,74.2052239 42.8052667,74.8652239 C33.1632667,76.3482239 24.2022667,74.2062239 16.2192667,68.6182239 C6.85526672,62.0632239 1.42726672,53.0212239 0.216266722,41.6102239 C-1.87273328,21.9152239 11.3812667,4.22422385 30.9172667,0.628223854 C37.8492667,-0.647776146 44.6662667,0.0722238544 51.3372667,2.31422385 C52.6942667,2.77022385 54.0812667,3.13722385 55.4522667,3.55322385 C55.5082667,3.57122385 55.5412667,3.67222385 55.6312667,3.80122385 C47.2182667,4.77722385 40.0442667,8.24222385 34.2712667,14.4032239 C28.5092667,20.5522239 25.4042667,27.9332239 25.0042667,36.3142239 C24.2492667,52.1752239 36.0402667,69.5562239 55.4462667,71.6052239 C55.4702667,71.7042239 55.4952667,71.8032239 55.5202667,71.9032239" id="Fill-16" fill="#000000"></path>
    </g>
</svg>